<svg width="38" height="48" viewBox="0 0 38 48" fill="none" xmlns="http://www.w3.org/2000/svg">
<path fill-rule="evenodd" clip-rule="evenodd" d="M26.6021 13.6302H29.3419C29.7341 13.6302 30.0543 13.9515 30.0543 14.3437V16.7453C30.4529 16.8726 30.8352 17.0347 31.1984 17.2294L32.9172 15.5535C33.1985 15.2798 33.6517 15.2856 33.9254 15.5669L35.8366 17.5321C36.1102 17.8133 36.1039 18.2671 35.8232 18.5408L34.1044 20.2167C34.2537 20.5147 34.3821 20.8256 34.4861 21.1469L36.8854 21.1278C37.2776 21.1243 37.6007 21.4427 37.6042 21.8349L37.6263 24.5782C37.6292 24.9704 37.3113 25.2941 36.9191 25.297L34.5204 25.3167C34.4036 25.695 34.2549 26.0593 34.0771 26.4062L35.7813 28.0972C36.0603 28.3732 36.062 28.8276 35.786 29.1059L33.8574 31.0542C33.582 31.3332 33.1282 31.3355 32.8498 31.0589L31.1461 29.3686C30.7981 29.5504 30.4337 29.7033 30.0543 29.8235V32.2257C30.0543 32.6179 29.7341 32.9392 29.3419 32.9392H26.6021C26.2099 32.9392 25.8897 32.6179 25.8897 32.2257V29.8247C25.4911 29.6974 25.1088 29.5347 24.7456 29.3401L23.0268 31.0159C22.7455 31.2901 22.2923 31.2838 22.0186 31.0031L20.1075 29.0373C19.8338 28.7567 19.8402 28.3028 20.1209 28.0286L21.8397 26.3533C21.6903 26.0547 21.5619 25.7438 21.4573 25.4225L19.0586 25.4422C18.6664 25.4451 18.3434 25.1267 18.3399 24.7345L18.3178 21.9918C18.3149 21.599 18.6327 21.2754 19.0249 21.2725L21.4143 21.2533H21.4236C21.5404 20.8744 21.6892 20.5107 21.867 20.1632L21.8577 20.1539L20.1627 18.4722C19.8838 18.1962 19.882 17.7424 20.158 17.4635L22.0866 15.5152C22.3621 15.2363 22.8159 15.2345 23.0942 15.5105L24.7979 17.2015C25.1454 17.019 25.5103 16.8662 25.8897 16.7459V14.3437C25.8897 13.9515 26.2099 13.6302 26.6021 13.6302ZM27.9723 19.2451C30.2007 19.2451 32.0073 21.054 32.0073 23.2847C32.0073 25.516 30.2007 27.3243 27.9723 27.3243C25.7433 27.3243 23.9368 25.516 23.9368 23.2847C23.9368 21.054 25.7433 19.2451 27.9723 19.2451Z" fill="#999999"/>
<path d="M20.7613 45.6851H16.5706C15.8329 45.6851 15.2347 46.0808 15.2347 46.5689V46.5695C15.2347 47.0576 15.8329 47.4533 16.5706 47.4533H20.7613C21.4991 47.4533 22.0972 47.0576 22.0972 46.5695V46.5689C22.0972 46.0808 21.4991 45.6851 20.7613 45.6851Z" fill="#999999"/>
<path d="M21.7626 42.5544H15.6259C14.5456 42.5544 13.67 42.9501 13.67 43.4382V43.4388C13.67 43.9269 14.5456 44.3226 15.6259 44.3226H21.7626C22.8428 44.3226 23.7185 43.9269 23.7185 43.4388V43.4382C23.7185 42.9501 22.8428 42.5544 21.7626 42.5544Z" fill="#999999"/>
<path d="M30.6757 6.54729L28.1473 9.03699C27.7022 9.47527 27.6191 10.1126 27.9617 10.4605C28.3042 10.8084 28.9428 10.7351 29.3879 10.2968L31.9162 7.80715C32.3613 7.36887 32.4444 6.73155 32.1019 6.38365C31.7593 6.03575 31.1208 6.10902 30.6757 6.54729Z" fill="#999999"/>
<path d="M1.10248 20.6277L4.47862 20.5756C5.07295 20.5665 5.54922 20.1633 5.5424 19.6751C5.53559 19.1869 5.04826 18.7985 4.45393 18.8077L1.07779 18.8598C0.483459 18.8689 0.00718803 19.2721 0.014006 19.7603C0.0208239 20.2485 0.508149 20.6369 1.10248 20.6277Z" fill="#999999"/>
<path d="M5.55025 7.75895L8.04229 10.285C8.48098 10.7297 9.11838 10.8122 9.46596 10.4693C9.81354 10.1264 9.73968 9.48798 9.30099 9.0433L6.80896 6.51721C6.37027 6.07253 5.73287 5.99001 5.38529 6.33291C5.0377 6.6758 5.11156 7.31427 5.55025 7.75895Z" fill="#999999"/>
<path fill-rule="evenodd" clip-rule="evenodd" d="M15.7186 39.2218C15.6291 36.0178 14.8366 32.8765 13.4129 30.4418C12.636 29.1141 12.0457 28.2611 11.1711 27.1681C5.00072 19.4514 14.0387 8.23846 23.1755 12.9661C23.9518 13.3676 24.6578 13.8824 25.2807 14.485V14.0021C25.2807 13.5942 25.6137 13.2613 26.021 13.2613H26.9502C25.4835 11.7604 23.5433 10.6203 21.1487 10.1031C13.7668 8.5104 6.5667 14.428 7.25933 22.5881C7.62541 26.9008 10.188 28.7242 11.7534 31.6388C15.7558 39.0934 11.3704 41.2765 15.9597 41.2283C17.4194 41.2126 21.7112 41.4183 22.8205 41.1946C24.7311 40.8093 22.6944 37.9639 25.2807 32.5163V30.0746C25.014 29.9892 24.7537 29.8887 24.501 29.7742C23.1174 32.0142 21.8396 34.8469 21.7223 39.2218H15.7186Z" fill="#999999"/>
<path d="M17.8491 1.43427L17.8201 4.98258C17.8149 5.60722 18.2066 6.11683 18.6948 6.12083C19.1831 6.12483 19.583 5.62171 19.5881 4.99707L19.6172 1.44875C19.6223 0.824117 19.2307 0.314507 18.7424 0.310506C18.2542 0.306505 17.8543 0.809629 17.8491 1.43427Z" fill="#999999"/>
</svg>
