<svg width="26" height="35" viewBox="0 0 26 35" fill="none" xmlns="http://www.w3.org/2000/svg">
<path fill-rule="evenodd" clip-rule="evenodd" d="M5.37814 14.1603H20.0401V9.13783C20.0401 5.90294 17.3743 2.93358 14.121 2.93358H11.297C8.04374 2.93358 5.37814 5.90533 5.37814 9.13783V14.1603ZM4.05948 15.7332H21.5754C22.7605 15.7332 23.7297 16.6963 23.7297 17.8735V31.0653C23.7297 32.243 22.7605 33.2061 21.5754 33.2061H4.05948C2.87443 33.2061 1.90514 32.243 1.90514 31.0653V17.8735C1.90514 16.6963 2.87443 15.7332 4.05948 15.7332ZM22.1861 14.1603H22.5394C23.9144 14.1603 25.0394 15.2781 25.0394 16.6443V31.9512C25.0394 33.3173 23.9144 34.4352 22.5394 34.4352H3.09545C1.72027 34.4352 0.595459 33.3173 0.595459 31.9512V16.6443C0.595459 15.2981 1.68719 14.1936 3.03455 14.1611V8.88079C3.03455 4.42991 6.69944 0.788452 11.1787 0.788452H14.0419C18.5212 0.788452 22.1861 4.42991 22.1861 8.88079V14.1603Z" fill="#CCCCCC"/>
</svg>
