<svg width="27" height="50" viewBox="0 0 27 50" fill="none" xmlns="http://www.w3.org/2000/svg">
<path fill-rule="evenodd" clip-rule="evenodd" d="M3.01415 0.117188H24.6248C25.8195 0.117188 26.7969 1.09455 26.7969 2.28923V46.8965C26.7969 48.0912 25.8195 49.0685 24.6248 49.0685H3.01415C1.81946 49.0685 0.842102 48.0912 0.842102 46.8965V2.28923C0.842102 1.09455 1.81946 0.117188 3.01415 0.117188ZM11.9156 45.32H15.7234C16.1737 45.32 16.5415 45.6878 16.5415 46.1376C16.5415 46.5873 16.1737 46.9551 15.7234 46.9551H11.9156C11.4653 46.9551 11.0974 46.5873 11.0974 46.1376C11.0974 45.6878 11.4653 45.32 11.9156 45.32ZM2.36799 43.2909H25.3326V4.50951H2.36799V43.2909Z" fill="#999999"/>
</svg>
