<svg width="46" height="46" viewBox="0 0 46 46" fill="none" xmlns="http://www.w3.org/2000/svg">
<path fill-rule="evenodd" clip-rule="evenodd" d="M1.39173 24.2955C1.96932 35.8176 11.7168 45.1717 23.9722 44.5773C35.5652 44.0148 44.9315 34.1017 44.2412 21.7713C43.5974 10.2713 33.7656 1.14031 21.5497 1.71906C10.1014 2.2612 0.783927 12.1679 1.39173 24.2955V24.2955ZM16.4026 21.6522C23.5754 19.6289 18.7774 26.5524 18.1981 31.7228C17.6595 36.5288 22.1244 36.9257 25.4458 35.6322C27.2344 34.9361 27.1682 35.4597 27.6278 33.4962C26.0757 33.8611 24.9066 34.3899 23.8473 33.2562C22.9403 30.1545 26.694 24.4739 25.6295 21.1536C25.0158 19.239 22.7683 18.6858 20.8722 18.8956C19.9785 18.9943 18.8437 19.4069 18.079 19.6742C16.5252 20.2187 16.6792 19.9247 16.4026 21.6522V21.6522ZM23.5667 10.1702C19.5044 11.6821 21.8124 17.1721 25.8601 15.8856C27.2291 15.4504 28.5029 13.7054 27.7823 11.8617C27.2658 10.5415 25.454 9.46706 23.5667 10.1702Z" stroke="#999999" stroke-width="2" stroke-miterlimit="22.9256"/>
</svg>
