<svg width="45" height="45" viewBox="0 0 45 45" fill="none" xmlns="http://www.w3.org/2000/svg">
<path fill-rule="evenodd" clip-rule="evenodd" d="M17.0592 27.9604C18.3671 28.4027 19.6975 28.5975 21.043 28.6269L21.1352 34.3514C21.1487 35.1943 21.5801 35.7594 22.189 35.775C22.9683 35.7949 23.3486 35.2035 23.3576 34.3268L23.4161 28.6306C24.7865 28.6457 26.0799 28.4099 27.32 28.0006L29.6984 32.7989C30.0573 33.5229 30.6336 33.8969 31.1704 33.7879C31.9669 33.6261 32.121 32.8066 31.6906 31.8849L29.534 27.269C29.9136 27.2835 32.6859 25.8631 32.8619 25.5722L35.8134 28.9935C36.4275 29.7053 37.0961 30.0256 37.7185 29.6323C38.458 29.1651 38.3217 28.4501 37.7129 27.724L34.7728 24.219C35.5733 23.4405 38.7818 20.9232 39.0947 19.7455C39.3419 18.8151 38.3 17.4216 36.8838 19.0861C36.0786 20.0324 35.6408 20.5396 34.6849 21.3303C31.1148 24.2836 27.3457 26.4129 22.1868 26.4029C16.2895 26.3917 10.5144 22.8688 7.63887 19.2209C7.32652 18.8243 7.13805 18.2613 6.25023 18.3386C5.59773 18.3952 5.20623 18.8929 5.31317 19.6068C5.48629 20.7638 9.35946 23.8969 9.59849 24.219L6.74099 27.2261C6.31958 27.6697 5.92729 28.6563 6.67455 29.1846C7.22646 29.4962 7.96208 29.2024 8.60505 28.5411L11.5128 25.551C11.7106 25.8194 14.7168 27.3338 14.8955 27.269L12.9303 31.639C12.6291 32.3087 12.3477 33.3715 13.2355 33.7593C13.9537 34.073 14.6787 33.2924 15.0456 32.4704L17.0592 27.9604Z" fill="#1E1E1E"/>
</svg>
