<svg width="14" height="20" viewBox="0 0 14 20" fill="none" xmlns="http://www.w3.org/2000/svg">
<path d="M0.762377 0.5H7.80919C7.95236 0.5 8.07157 0.619211 8.07157 0.762364V19.2376C8.07157 19.3808 7.95232 19.5 7.80919 19.5H0.762377C0.619246 19.5 0.5 19.3808 0.5 19.2376V0.762364C0.5 0.619211 0.619203 0.5 0.762377 0.5ZM10.4923 6.78328V0.5H12.6139V6.78328H10.4923ZM5.63882 3.05932C5.63882 2.31238 5.03276 1.70625 4.28578 1.70625C3.53879 1.70625 2.93275 2.31239 2.93275 3.05932C2.93275 3.80667 3.53921 4.41183 4.28578 4.41183C5.03233 4.41183 5.63882 3.80668 5.63882 3.05932Z" stroke="#666666"/>
</svg>
