<svg width="162" height="162" viewBox="0 0 162 162" fill="none" xmlns="http://www.w3.org/2000/svg">
<mask id="mask0_1256_1363" style="mask-type:luminance" maskUnits="userSpaceOnUse" x="76" y="62" width="53" height="48">
<path d="M81.5713 63.1428C78.5713 64.1428 76.6189 66.8095 76.6189 69.9999V85.1428C76.6189 86.2857 77.5237 87.1904 78.6665 87.1904C79.8094 87.1904 80.7141 86.2857 80.7141 85.1428V69.9999C80.7141 68.3333 81.8094 67.3809 82.857 66.9999C83.9046 66.6666 85.3808 66.7619 86.3808 68.0952L114.905 106.619C116.333 108.524 118.476 109.571 120.714 109.571C121.476 109.571 122.286 109.429 123.047 109.19C126.095 108.19 128.047 105.476 128.047 102.286V64.7619C128.047 63.619 127.143 62.7142 126 62.7142C124.857 62.7142 123.952 63.619 123.952 64.7619V102.286C123.952 104 122.809 105 121.714 105.333C120.619 105.667 119.143 105.571 118.095 104.19L89.5713 65.6666C88.1903 63.7619 86.0475 62.7142 83.857 62.7142C83.0951 62.7619 82.3332 62.8571 81.5713 63.1428Z" fill="white"/>
</mask>
<g mask="url(#mask0_1256_1363)">
<path d="M128.047 62.7618H76.6189V109.571H128.047V62.7618Z" fill="url(#paint0_linear_1256_1363)"/>
</g>
<path d="M80.7142 87.3809H76.4761V86.8095C76.4761 80.8095 74.1428 75.1904 69.9047 70.9523C65.6666 66.7142 59.9999 64.3809 53.9999 64.3809H53.4285V60.1428H53.9999C61.1904 60.1428 67.857 62.9523 72.857 67.9523C77.9047 73 80.6666 79.7143 80.6666 86.8095V87.3809H80.7142Z" fill="url(#paint1_linear_1256_1363)"/>
<mask id="mask1_1256_1363" style="mask-type:luminance" maskUnits="userSpaceOnUse" x="53" y="60" width="28" height="28">
<path d="M80.7142 87.3809H76.4761V86.8095C76.4761 80.8095 74.1428 75.1904 69.9047 70.9523C65.6666 66.7142 59.9999 64.3809 53.9999 64.3809H53.4285V60.1428H53.9999C61.1904 60.1428 67.857 62.9523 72.857 67.9523C77.9047 73 80.6666 79.7143 80.6666 86.8095V87.3809H80.7142Z" fill="white"/>
</mask>
<g mask="url(#mask1_1256_1363)">
<path d="M77.5238 94.7618L46.0952 84.1904L56.6666 52.8094L88.0952 63.3809L77.5238 94.7618Z" fill="url(#paint2_linear_1256_1363)"/>
<path d="M77.857 95.4285L45.4285 84.5238L56.3332 52.0952L88.7618 63L77.857 95.4285ZM46.8094 83.8571L77.1904 94.0476L87.4285 63.7143L57.0475 53.5238L46.8094 83.8571Z" fill="url(#paint3_linear_1256_1363)"/>
</g>
<path d="M30.9999 87.3809H27.3333V86.8095C27.3333 72.0952 39.3333 60.1428 54.0475 60.1428H54.619V64.3809H54.0475C48.0475 64.3809 42.4285 66.7142 38.1428 70.9523C33.9047 75.1904 31.5713 80.8571 31.5713 86.8095V87.3809H30.9999Z" fill="url(#paint4_linear_1256_1363)"/>
<mask id="mask2_1256_1363" style="mask-type:luminance" maskUnits="userSpaceOnUse" x="27" y="60" width="28" height="28">
<path d="M30.9999 87.3809H27.3333V86.8095C27.3333 72.0952 39.3333 60.1428 54.0475 60.1428H54.619V64.3809H54.0475C48.0475 64.3809 42.4285 66.7142 38.1428 70.9523C33.9047 75.1904 31.5713 80.8571 31.5713 86.8095V87.3809H30.9999Z" fill="white"/>
</mask>
<g mask="url(#mask2_1256_1363)">
<path d="M67.095 73.3809L41.3331 99.9047L14.8093 74.1904L40.5712 47.6666L67.095 73.3809Z" fill="url(#paint5_linear_1256_1363)"/>
</g>
<path d="M53.9999 113.524C46.8571 113.524 40.1904 110.762 35.1428 105.714C30.0952 100.667 27.3333 93.9523 27.3333 86.8571V86.2856H31.5713V86.8571C31.5713 92.8571 33.9047 98.4761 38.1428 102.714C42.3809 106.952 48.0475 109.286 54.0475 109.286H54.619V113.524H53.9999Z" fill="url(#paint6_linear_1256_1363)"/>
<mask id="mask3_1256_1363" style="mask-type:luminance" maskUnits="userSpaceOnUse" x="27" y="86" width="28" height="28">
<path d="M53.9999 113.524C46.8571 113.524 40.1904 110.762 35.1428 105.714C30.0952 100.667 27.3333 93.9523 27.3333 86.8571V86.2856H31.5713V86.8571C31.5713 92.8571 33.9047 98.4761 38.1428 102.714C42.3809 106.952 48.0475 109.286 54.0475 109.286H54.619V113.524H53.9999Z" fill="white"/>
</mask>
<g mask="url(#mask3_1256_1363)">
<path d="M54 86.8571H27.8572V113H54V86.8571Z" fill="url(#paint7_linear_1256_1363)"/>
</g>
<path d="M53.9999 113.524H53.4285V109.286H53.9999C59.9999 109.286 65.6189 106.952 69.9047 102.714C74.1428 98.4761 76.4761 92.8095 76.4761 86.8571V86.2856H80.7142V86.8571C80.7142 101.571 68.7142 113.524 53.9999 113.524Z" fill="url(#paint8_linear_1256_1363)"/>
<mask id="mask4_1256_1363" style="mask-type:luminance" maskUnits="userSpaceOnUse" x="53" y="86" width="28" height="28">
<path d="M53.9999 113.524H53.4285V109.286H53.9999C59.9999 109.286 65.6189 106.952 69.9047 102.714C74.1428 98.4761 76.4761 92.8095 76.4761 86.8571V86.2856H80.7142V86.8571C80.7142 101.571 68.7142 113.524 53.9999 113.524Z" fill="white"/>
</mask>
<g mask="url(#mask4_1256_1363)">
<path d="M80.1429 86.8571H54V113H80.1429V86.8571Z" fill="url(#paint9_linear_1256_1363)"/>
<path d="M80.7142 113.524H53.4761V86.2856H80.7142V113.524ZM54.5713 112.429H79.6189V87.3809H54.5713V112.429Z" fill="url(#paint10_linear_1256_1363)"/>
</g>
<path d="M129.952 64.7618C129.952 66.9523 128.19 68.7142 126 68.7142C123.81 68.7142 122.048 66.9523 122.048 64.7618C122.048 62.5714 123.81 60.8094 126 60.8094C128.19 60.8094 129.952 62.619 129.952 64.7618Z" fill="#283272"/>
<path d="M84.5712 133.762H70.857C68.0474 133.762 65.7617 131.476 65.7617 128.667C65.7617 126.809 66.7617 125.19 68.2855 124.286C68.476 121.905 70.5236 120 72.9522 120C73.4284 120 73.9046 120.095 74.3331 120.19C75.6665 118.428 77.7141 117.381 79.9522 117.381C83.7617 117.381 86.857 120.428 86.9998 124.19C88.5712 125.095 89.6189 126.762 89.6189 128.619C89.6665 131.476 87.3808 133.762 84.5712 133.762ZM72.9998 122.381C71.7141 122.381 70.6665 123.428 70.6665 124.714C70.6665 124.762 70.6665 124.809 70.6665 124.857C70.7141 125.428 70.3808 125.952 69.857 126.143C68.8093 126.571 68.1427 127.571 68.1427 128.667C68.1427 130.19 69.3808 131.381 70.857 131.381H84.5712C86.0951 131.381 87.2855 130.143 87.2855 128.667C87.2855 127.524 86.5712 126.524 85.5236 126.095C84.9522 125.905 84.6189 125.333 84.6665 124.762C84.6665 124.667 84.6665 124.571 84.6665 124.428C84.6665 121.857 82.5712 119.762 79.9998 119.762C78.3331 119.762 76.7617 120.667 75.9046 122.143C75.5236 122.762 74.7141 123 74.0951 122.667C73.8093 122.476 73.3808 122.381 72.9998 122.381Z" fill="black"/>
<path d="M37.0474 131.143C36.6665 131.048 36.3331 130.857 36.1427 130.619C35.9046 130.381 35.7617 130.048 35.6665 129.667C35.5712 129.286 35.5236 128.809 35.5236 128.286V125.381C35.5236 124.809 35.5712 124.333 35.6665 124C35.7617 123.619 35.9046 123.286 36.1427 123.048C36.3808 122.809 36.6665 122.619 37.0474 122.524C37.4284 122.428 37.8569 122.381 38.4284 122.381H45.6665C46.7617 122.381 47.7141 121.476 47.7141 120.381V120.143C47.7141 119.952 47.6665 119.905 47.476 119.905H38.2855C37.2855 119.905 36.4284 120 35.7141 120.19C35.0474 120.381 34.476 120.667 34.0474 121.095C33.6188 121.476 33.2855 122.048 33.095 122.667C32.9046 123.333 32.8093 124.143 32.8093 125.095V128.571C32.8093 129.524 32.9046 130.333 33.095 131C33.2855 131.667 33.6188 132.19 34.0474 132.571C34.476 132.952 35.0474 133.286 35.7141 133.428C36.4284 133.619 37.2855 133.714 38.2855 133.714H47.476C47.6188 133.714 47.7141 133.619 47.7141 133.476V133.333C47.7141 132.19 46.8093 131.286 45.6665 131.286H38.3808C37.8569 131.286 37.3808 131.238 37.0474 131.143Z" fill="black"/>
<path d="M62.6665 131.286H56.1903C55.6665 131.286 55.1903 131.238 54.8094 131.143C54.4284 131.048 54.0951 130.857 53.9046 130.619C53.6665 130.381 53.5237 130.048 53.4284 129.667C53.3332 129.286 53.2856 128.809 53.2856 128.286V121.952C53.2856 120.809 52.3808 119.905 51.238 119.905H50.857C50.6189 119.905 50.5713 120 50.5713 120.143V128.571C50.5713 129.524 50.6665 130.333 50.857 131C51.0475 131.667 51.3808 132.19 51.8094 132.571C52.238 132.952 52.8094 133.286 53.4761 133.428C54.1903 133.619 55.0475 133.714 56.0475 133.714H64.4284C64.5713 133.714 64.6665 133.619 64.6665 133.476V133.333C64.7141 132.19 63.7618 131.286 62.6665 131.286Z" fill="black"/>
<path d="M108.952 119.905H108.523C107.381 119.905 106.476 120.809 106.476 121.952V128.286C106.476 128.857 106.428 129.333 106.333 129.667C106.238 130.048 106.095 130.381 105.857 130.619C105.619 130.857 105.333 131.048 104.952 131.143C104.571 131.238 104.143 131.286 103.571 131.286H97.9521C97.4282 131.286 96.9521 131.238 96.5711 131.143C96.1902 131.048 95.8568 130.857 95.6663 130.619C95.4282 130.381 95.2854 130.048 95.1902 129.667C95.0949 129.286 95.0473 128.809 95.0473 128.286V121.952C95.0473 120.809 94.1425 119.905 92.9997 119.905H92.6187C92.3806 119.905 92.333 120 92.333 120.143V128.571C92.333 129.524 92.4282 130.333 92.6187 131C92.8092 131.667 93.1425 132.19 93.5711 132.571C93.9997 132.952 94.5711 133.286 95.2378 133.428C95.9521 133.619 96.8092 133.714 97.8092 133.714H103.666C104.666 133.714 105.523 133.619 106.238 133.428C106.904 133.238 107.476 132.952 107.904 132.571C108.333 132.19 108.666 131.619 108.857 131C109.047 130.333 109.143 129.524 109.143 128.571V120.143C109.19 120.048 109.047 119.905 108.952 119.905Z" fill="black"/>
<path d="M126.619 121.238C126.143 120.809 125.524 120.476 124.762 120.238C124 120 123.047 119.905 122 119.905H112.476C112.19 119.905 112.047 120 112.047 120.333V133.333C112.047 133.619 112.143 133.762 112.476 133.762H122C123.095 133.762 124 133.667 124.762 133.428C125.524 133.238 126.143 132.905 126.619 132.428C127.095 132 127.428 131.428 127.666 130.714C127.905 130 128 129.143 128 128.19V125.428C128 124.476 127.905 123.619 127.666 122.905C127.428 122.238 127.047 121.667 126.619 121.238ZM125.285 127.952C125.285 128.571 125.238 129.095 125.095 129.524C125 129.952 124.762 130.333 124.524 130.571C124.238 130.857 123.905 131.048 123.428 131.143C123 131.238 122.476 131.333 121.857 131.333H115.19C114.905 131.333 114.714 131.143 114.714 130.857V122.857C114.714 122.571 114.905 122.381 115.19 122.381H121.857C122.476 122.381 123 122.428 123.428 122.571C123.857 122.667 124.238 122.905 124.524 123.143C124.809 123.428 125 123.762 125.095 124.19C125.19 124.619 125.285 125.143 125.285 125.762V127.952Z" fill="black"/>
<path d="M51.2379 28.238H33.3808C32.9522 28.238 32.6189 28.5714 32.6189 28.9999V54.238C32.6189 54.6666 32.9522 54.9999 33.3808 54.9999H33.9522C35.6665 54.9999 37.7141 53.619 37.7141 51.8571V49.8571C37.7141 48.7618 38.6189 47.8571 39.7141 47.8571H51.1903C56.3808 47.8571 60.6189 43.619 60.6189 38.4285V37.619C60.6665 32.4285 56.4284 28.238 51.2379 28.238ZM55.5237 38.3809C55.5237 41.1428 53.9998 42.619 51.2379 42.619H38.476C38.0475 42.619 37.7141 42.2857 37.7141 41.8571V33.9047C37.7141 33.4761 38.0475 33.1428 38.476 33.1428H51.1903C53.9522 33.1428 55.476 34.8571 55.476 37.619V38.3809H55.5237Z" fill="black"/>
<path d="M83.5236 28.238H65.6664C65.2379 28.238 64.9045 28.5714 64.9045 28.9999V54.238C64.9045 54.6666 65.2379 54.9999 65.6664 54.9999H66.2379C67.9522 54.9999 69.9998 53.619 69.9998 51.8571V49.8571C69.9998 48.7618 70.9045 47.8571 71.9998 47.8571H83.476C88.6664 47.8571 92.9045 43.619 92.9045 38.4285V37.619C92.9998 32.4285 88.7617 28.238 83.5236 28.238ZM87.8093 38.3809C87.8093 41.1428 86.2855 42.619 83.5236 42.619H70.8093C70.3807 42.619 70.0474 42.2857 70.0474 41.8571V33.9047C70.0474 33.4761 70.3807 33.1428 70.8093 33.1428H83.5236C86.2855 33.1428 87.8093 34.8571 87.8093 37.619V38.3809Z" fill="black"/>
<path d="M128.047 53.8571L116.047 32.0952C115.238 30.6666 114.381 29.6666 113.381 29.0952C112.428 28.5238 111.238 28.238 109.905 28.238H109.047H109H108.143C106.809 28.238 105.666 28.5238 104.666 29.0952C103.666 29.6666 102.809 30.6666 102 32.0952L89.9997 53.8571C89.714 54.3809 90.095 54.9999 90.6664 54.9999H92.8093C94.2855 54.9999 95.6664 54.1904 96.4283 52.8571L98.4759 49.0952C98.9045 48.3333 99.714 47.8571 100.571 47.8571H108.952H109H117.381C118.238 47.8571 119.047 48.3333 119.476 49.0952L121.524 52.8571C122.238 54.1428 123.619 54.9999 125.143 54.9999H127.285C127.952 54.9999 128.333 54.3809 128.047 53.8571ZM114.809 42.619H103.333C102.762 42.619 102.381 41.9999 102.666 41.4761L106.381 34.6666C107.095 33.3333 107.762 33.0952 108.19 33.0952H109.952C110.381 33.0952 111.047 33.3809 111.762 34.6666L115.476 41.4761C115.762 41.9999 115.381 42.619 114.809 42.619Z" fill="black"/>
<defs>
<linearGradient id="paint0_linear_1256_1363" x1="81.0012" y1="86.1643" x2="129.736" y2="86.1643" gradientUnits="userSpaceOnUse">
<stop stop-color="#F8A51C"/>
<stop offset="0.2106" stop-color="#F38020"/>
<stop offset="0.2373" stop-color="#F27221"/>
<stop offset="0.3172" stop-color="#EE4E24"/>
<stop offset="0.3921" stop-color="#EC3425"/>
<stop offset="0.4592" stop-color="#EB2527"/>
<stop offset="0.512" stop-color="#EA1F27"/>
<stop offset="0.7449" stop-color="#772A54"/>
<stop offset="0.8993" stop-color="#283272"/>
<stop offset="1" stop-color="#283272"/>
</linearGradient>
<linearGradient id="paint1_linear_1256_1363" x1="75.3582" y1="76.4144" x2="56.6447" y2="70.2099" gradientUnits="userSpaceOnUse">
<stop stop-color="#F8A51C"/>
<stop offset="0.9874" stop-color="#F05A24"/>
<stop offset="1" stop-color="#F05A24"/>
</linearGradient>
<linearGradient id="paint2_linear_1256_1363" x1="75.3256" y1="76.5127" x2="56.6122" y2="70.3082" gradientUnits="userSpaceOnUse">
<stop stop-color="#F8A51C"/>
<stop offset="0.9874" stop-color="#F05A24"/>
<stop offset="1" stop-color="#F05A24"/>
</linearGradient>
<linearGradient id="paint3_linear_1256_1363" x1="75.3256" y1="76.5127" x2="56.612" y2="70.3083" gradientUnits="userSpaceOnUse">
<stop stop-color="#F8A51C"/>
<stop offset="0.9874" stop-color="#F05A24"/>
<stop offset="1" stop-color="#F05A24"/>
</linearGradient>
<linearGradient id="paint4_linear_1256_1363" x1="48.6218" y1="60.8276" x2="30.6088" y2="85.2452" gradientUnits="userSpaceOnUse">
<stop stop-color="#F05A24"/>
<stop offset="0.000664465" stop-color="#F05A24"/>
<stop offset="0.9935" stop-color="#EA1F27"/>
<stop offset="1" stop-color="#EA1F27"/>
</linearGradient>
<linearGradient id="paint5_linear_1256_1363" x1="49.8364" y1="61.7237" x2="31.8234" y2="86.1414" gradientUnits="userSpaceOnUse">
<stop stop-color="#F05A24"/>
<stop offset="0.000664465" stop-color="#F05A24"/>
<stop offset="0.9935" stop-color="#EA1F27"/>
<stop offset="1" stop-color="#EA1F27"/>
</linearGradient>
<linearGradient id="paint6_linear_1256_1363" x1="49.6637" y1="112.723" x2="30.0496" y2="91.5077" gradientUnits="userSpaceOnUse">
<stop stop-color="#F05A24"/>
<stop offset="0.000664465" stop-color="#F05A24"/>
<stop offset="0.9935" stop-color="#EA1F27"/>
<stop offset="1" stop-color="#EA1F27"/>
</linearGradient>
<linearGradient id="paint7_linear_1256_1363" x1="51.3486" y1="111.165" x2="31.7345" y2="89.9501" gradientUnits="userSpaceOnUse">
<stop stop-color="#F05A24"/>
<stop offset="0.000664465" stop-color="#F05A24"/>
<stop offset="0.9935" stop-color="#EA1F27"/>
<stop offset="1" stop-color="#EA1F27"/>
</linearGradient>
<linearGradient id="paint8_linear_1256_1363" x1="77.56" y1="90.5471" x2="60.1475" y2="111.162" gradientUnits="userSpaceOnUse">
<stop stop-color="#F8A51C"/>
<stop offset="0.9874" stop-color="#F05A24"/>
<stop offset="1" stop-color="#F05A24"/>
</linearGradient>
<linearGradient id="paint9_linear_1256_1363" x1="76.065" y1="89.2842" x2="58.6524" y2="109.899" gradientUnits="userSpaceOnUse">
<stop stop-color="#F8A51C"/>
<stop offset="0.9874" stop-color="#F05A24"/>
<stop offset="1" stop-color="#F05A24"/>
</linearGradient>
<linearGradient id="paint10_linear_1256_1363" x1="76.0649" y1="89.2843" x2="58.6524" y2="109.899" gradientUnits="userSpaceOnUse">
<stop stop-color="#F8A51C"/>
<stop offset="0.9874" stop-color="#F05A24"/>
<stop offset="1" stop-color="#F05A24"/>
</linearGradient>
</defs>
</svg>
