<svg width="30" height="30" viewBox="0 0 30 30" fill="none" xmlns="http://www.w3.org/2000/svg">
<path d="M7.90678 15.978H11.1952V29.5161C11.1952 29.7834 11.4118 30 11.6791 30H17.2548C17.5221 30 17.7387 29.7834 17.7387 29.5161V16.0418H21.5191C21.7649 16.0418 21.9717 15.8573 21.9998 15.6132L22.574 10.6291C22.5897 10.492 22.5463 10.3547 22.4545 10.2518C22.3627 10.1488 22.2313 10.0899 22.0934 10.0899H17.7389V6.96562C17.7389 6.02385 18.246 5.54625 19.2463 5.54625C19.3889 5.54625 22.0934 5.54625 22.0934 5.54625C22.3607 5.54625 22.5772 5.32957 22.5772 5.06238V0.487441C22.5772 0.220137 22.3607 0.00357422 22.0934 0.00357422H18.1696C18.142 0.00222656 18.0805 0 17.9899 0C17.3091 0 14.9427 0.133652 13.0734 1.85332C11.0022 3.75902 11.2902 6.04072 11.3589 6.43635V10.0898H7.90672C7.63941 10.0898 7.42285 10.3063 7.42285 10.5737V15.4941C7.42291 15.7613 7.63947 15.978 7.90678 15.978Z" fill="#385C8E"/>
</svg>
