<svg width="29" height="23" viewBox="0 0 29 23" fill="none" xmlns="http://www.w3.org/2000/svg">
<path fill-rule="evenodd" clip-rule="evenodd" d="M26.7309 6.68428C26.6477 7.50958 26.7164 15.0846 26.7123 16.6197C26.7077 18.4898 25.8208 19.9411 24.1178 20.7039C23.2085 21.1112 22.2144 21.0632 21.1359 21.0632H7.65534C5.72173 21.0632 4.0929 21.0184 2.82698 19.211C1.7747 17.7086 2.07947 15.3569 2.07947 13.3179C2.07947 11.1108 2.07947 8.90378 2.07947 6.69659C2.466 6.80713 7.00271 9.08305 7.49018 9.32184C8.81507 9.97085 11.7582 11.5535 13.0405 11.8305C15.6633 12.3968 17.4166 11.2364 19.3131 10.3069C20.5389 9.70608 23.7182 8.20715 24.6749 7.63729C24.8069 7.38916 24.9835 7.17662 24.9316 6.78629C24.8909 6.48093 24.7477 6.30302 24.5269 6.14392C23.9478 5.72653 23.4581 6.09345 22.9381 6.33915C21.9775 6.79292 21.0804 7.27024 20.1139 7.72821C19.1668 8.17698 18.23 8.63617 17.2708 9.10591C16.2283 9.61665 15.4156 10.1358 13.9686 9.99709C12.8537 9.89021 11.8073 9.25731 10.9279 8.82572C9.67885 8.21284 2.66804 4.83982 2.47926 4.63539C2.74854 3.85298 3.68455 2.98656 4.37862 2.6467C5.58336 2.05695 6.33198 2.14841 7.78018 2.14841C10.4014 2.14841 13.0227 2.14841 15.6439 2.14841C17.0208 2.14841 22.4293 2.04478 23.3725 2.26355C24.9146 2.62153 26.0043 3.68562 26.481 5.02625C26.7081 5.66471 26.651 6.02567 26.7309 6.68428ZM0.0722591 17.1088C0.156497 18.085 0.370131 18.9329 0.754035 19.6553C1.99275 21.9856 4.10229 23.0435 7.03129 23.0428C11.3584 23.0417 15.6854 23.0428 20.0125 23.0428C22.3403 23.0428 23.938 23.1738 25.6537 22.1468C26.9292 21.3832 27.9697 20.2257 28.4739 18.5482C28.9042 17.1167 28.7321 14.1556 28.7321 12.4619C28.7321 11.0597 28.7979 7.23276 28.7147 6.11943C28.6069 4.67557 28.0226 3.07166 27.0405 2.14949L26.635 1.75822C25.3273 0.523529 23.6107 0.163782 21.7601 0.164052C17.4329 0.164594 13.1058 0.164052 8.77875 0.164052C6.20314 0.164052 5.0488 0.0048113 3.13687 1.062C1.76683 1.81951 0.769088 3.17962 0.311992 4.65744C-0.110303 6.02269 0.0592782 9.08927 0.0592782 10.7499C0.0592782 11.9951 -0.00410753 16.2218 0.0722591 17.1088Z" fill="#D9D9D9"/>
</svg>
