<svg width="38" height="32" viewBox="0 0 38 32" fill="none" xmlns="http://www.w3.org/2000/svg">
<path fill-rule="evenodd" clip-rule="evenodd" d="M6.89217 0.778931H15.3799V3.73775H6.85789C4.89851 3.73775 3.2959 5.34091 3.2959 7.30029V24.4925C3.2959 26.4519 4.89851 28.0551 6.85789 28.0551H15.3799V31.1359H6.89217C3.1088 31.1359 0.0134277 28.0405 0.0134277 24.2577V7.6571C0.0134277 3.87431 3.1088 0.778931 6.89217 0.778931Z" fill="#999999"/>
<path fill-rule="evenodd" clip-rule="evenodd" d="M24.1035 1.90215L37.3049 15.2418C37.7366 15.6782 37.7325 16.3883 37.2967 16.82L23.9564 30.0214C23.093 30.8756 21.7437 30.3689 21.7437 29.3712V21.7876H11.181C10.221 21.7876 9.43542 21.002 9.43542 20.0421V11.5968C9.43542 10.6368 10.221 9.85122 11.181 9.85122H21.7437V2.66799C21.7437 1.79638 23.2022 0.991031 24.1035 1.90215Z" fill="#999999"/>
</svg>
